<svg xmlns="http://www.w3.org/2000/svg" viewBox="0 0 1600 900" role="img" aria-labelledby="title desc">
  <title id="title">Social media manager pricing cover</title>
  <desc id="desc">A branded social media campaign planning illustration.</desc>
  <defs>
    <linearGradient id="bg" x1="0" x2="1" y1="0" y2="1"><stop offset="0" stop-color="#09111f"/><stop offset=".6" stop-color="#17395d"/><stop offset="1" stop-color="#155dfc"/></linearGradient>
    <pattern id="grid" width="80" height="80" patternUnits="userSpaceOnUse"><path d="M80 0H0v80" fill="none" stroke="#fff" stroke-opacity=".08"/></pattern>
    <filter id="shadow"><feDropShadow dx="0" dy="22" stdDeviation="24" flood-color="#000" flood-opacity=".25"/></filter>
  </defs>
  <rect width="1600" height="900" fill="url(#bg)"/><rect width="1600" height="900" fill="url(#grid)"/>
  <text x="95" y="170" fill="#fff" font-family="Arial, sans-serif" font-size="76" font-weight="800">Social media management</text>
  <text x="100" y="250" fill="#c2d1e2" font-family="Arial, sans-serif" font-size="34">Strategy, content, ads, creators, reporting,</text>
  <text x="100" y="296" fill="#c2d1e2" font-family="Arial, sans-serif" font-size="34">and weekly optimization.</text>
  <rect x="112" y="346" width="600" height="398" rx="34" fill="#08182e" stroke="#6a84a8" stroke-opacity=".5" filter="url(#shadow)"/>
  <text x="160" y="420" fill="#fff" font-family="Arial, sans-serif" font-size="46" font-weight="800">Monthly content engine</text>
  <g>
    <rect x="160" y="488" width="490" height="30" rx="15" fill="#155dfc"/><rect x="160" y="552" width="430" height="30" rx="15" fill="#f7b51b"/><rect x="160" y="616" width="520" height="30" rx="15" fill="#155dfc"/><rect x="160" y="680" width="390" height="30" rx="15" fill="#22c55e"/>
  </g>
  <g filter="url(#shadow)">
    <rect x="858" y="155" width="120" height="154" rx="28" fill="#f8fbff"/><rect x="884" y="184" width="68" height="54" rx="14" fill="#155dfc"/>
    <rect x="1030" y="155" width="120" height="154" rx="28" fill="#f8fbff"/><rect x="1056" y="184" width="68" height="54" rx="14" fill="#f7b51b"/>
    <rect x="1202" y="155" width="120" height="154" rx="28" fill="#f8fbff"/><rect x="1228" y="184" width="68" height="54" rx="14" fill="#22c55e"/>
    <rect x="1374" y="155" width="120" height="154" rx="28" fill="#f8fbff"/><rect x="1400" y="184" width="68" height="54" rx="14" fill="#155dfc"/>
    <rect x="944" y="390" width="120" height="154" rx="28" fill="#f8fbff"/><rect x="970" y="419" width="68" height="54" rx="14" fill="#f7b51b"/>
    <rect x="1116" y="390" width="120" height="154" rx="28" fill="#f8fbff"/><rect x="1142" y="419" width="68" height="54" rx="14" fill="#155dfc"/>
    <rect x="1288" y="390" width="120" height="154" rx="28" fill="#f8fbff"/><rect x="1314" y="419" width="68" height="54" rx="14" fill="#22c55e"/>
  </g>
  <polyline points="820,742 980,660 1130,685 1280,550 1450,478" fill="none" stroke="#22c55e" stroke-width="11" stroke-linecap="round" stroke-linejoin="round"/>
</svg>
